<svg xmlns="http://www.w3.org/2000/svg" xmlns:xlink="http://www.w3.org/1999/xlink" width="24" height="24" viewBox="0 0 24 24">
  <defs>
    <clipPath id="clip-ads-icon">
      <rect width="24" height="24"/>
    </clipPath>
  </defs>
  <g id="ads-icon" clip-path="url(#clip-ads-icon)">
    <g id="Grupo_625" data-name="Grupo 625">
      <path id="Trazado_140" data-name="Trazado 140" d="M21,3a1,1,0,0,1,1,1V20a1,1,0,0,1-1,1H3a1,1,0,0,1-1-1V4A1,1,0,0,1,3,3ZM9.4,8h-2L4.2,16H6.353l.4-1h3.29l.4,1H12.6ZM19,8H17v2H16a3,3,0,0,0-.176,6L16,16h3Zm-2,4v2H16l-.117-.007a1,1,0,0,1,0-1.986L16,12ZM8.4,10.885,9.244,13H7.552Z" transform="translate(0)" fill="#1e1f21"/>
      <path id="Trazado_139" data-name="Trazado 139" d="M0,0H24V24H0Z" fill="rgba(0,0,0,0)" opacity="0"/>
    </g>
  </g>
</svg>
