<svg xmlns="http://www.w3.org/2000/svg" xmlns:xlink="http://www.w3.org/1999/xlink" width="24" height="24" viewBox="0 0 24 24">
  <defs>
    <clipPath id="clip-attachment-icon">
      <rect width="24" height="24"/>
    </clipPath>
  </defs>
  <g id="attachment-icon" clip-path="url(#clip-attachment-icon)">
    <g id="Grupo_1138" data-name="Grupo 1138">
      <path id="Trazado_175" data-name="Trazado 175" d="M14.828,7.757,9.172,13.414a1,1,0,1,0,1.414,1.414l5.657-5.656A3,3,0,1,0,12,4.929L6.343,10.586a5,5,0,1,0,7.071,7.07L19.071,12l1.414,1.414-5.657,5.657a7,7,0,1,1-9.9-9.9l5.658-5.656a5,5,0,1,1,7.071,7.071L12,16.244A3,3,0,0,1,7.757,12l5.657-5.657Z" transform="translate(0 0)" fill="#1e1f21"/>
      <path id="Trazado_174" data-name="Trazado 174" d="M0,0H24V24H0Z" fill="rgba(0,0,0,0)" opacity="0"/>
    </g>
  </g>
</svg>
