<svg xmlns="http://www.w3.org/2000/svg" xmlns:xlink="http://www.w3.org/1999/xlink" width="24" height="24" viewBox="0 0 24 24">
  <defs>
    <clipPath id="clip-clockwise-icon">
      <rect width="24" height="24"/>
    </clipPath>
  </defs>
  <g id="clockwise-icon" clip-path="url(#clip-clockwise-icon)">
    <g id="Grupo_4735" data-name="Grupo 4735">
      <path id="Trazado_716" data-name="Trazado 716" d="M10.586,4,8.757,2.172,10.172.757,14.414,5,10.172,9.243,8.757,7.828,10.586,6H8A3,3,0,0,0,5,9v4H3V9A5,5,0,0,1,8,4ZM9,11a1,1,0,0,1,1-1H20a1,1,0,0,1,1,1V21a1,1,0,0,1-1,1H10a1,1,0,0,1-1-1Zm2,1v8h8V12Z"/>
      <path id="Trazado_715" data-name="Trazado 715" d="M0,0H24V24H0Z" fill="rgba(0,0,0,0)" opacity="0"/>
    </g>
  </g>
</svg>
