<svg xmlns="http://www.w3.org/2000/svg" xmlns:xlink="http://www.w3.org/1999/xlink" width="24" height="24" viewBox="0 0 24 24">
  <defs>
    <clipPath id="clip-cofing-alt">
      <rect width="24" height="24"/>
    </clipPath>
  </defs>
  <g id="cofing-alt" clip-path="url(#clip-cofing-alt)">
    <g id="Grupo_3389" data-name="Grupo 3389">
      <path id="Trazado_328" data-name="Trazado 328" d="M5.33,3.271A3.5,3.5,0,0,1,9.8,7.745L20.647,18.59l-2.122,2.121L7.68,9.867A3.5,3.5,0,0,1,3.208,5.393L5.444,7.63A1.5,1.5,0,1,0,7.565,5.509L5.329,3.27ZM15.7,5.155l3.182-1.768L20.293,4.8,18.525,7.983l-1.768.354-2.12,2.121L13.222,9.044l2.121-2.121L15.7,5.155ZM8.626,12.933l2.121,2.122L5.8,20A1.5,1.5,0,0,1,3.58,17.99l.1-.107,4.95-4.95Z"/>
      <path id="Trazado_327" data-name="Trazado 327" d="M0,0H24V24H0Z" fill="rgba(0,0,0,0)" opacity="0"/>
    </g>
  </g>
</svg>
