<svg xmlns="http://www.w3.org/2000/svg" xmlns:xlink="http://www.w3.org/1999/xlink" width="24" height="24" viewBox="0 0 24 24">
  <defs>
    <clipPath id="clip-copy-icon">
      <rect width="24" height="24"/>
    </clipPath>
  </defs>
  <g id="copy-icon" clip-path="url(#clip-copy-icon)">
    <g id="Grupo_2960" data-name="Grupo 2960">
      <path id="Trazado_283" data-name="Trazado 283" d="M7,6V3A1,1,0,0,1,8,2H20a1,1,0,0,1,1,1V17a1,1,0,0,1-1,1H17v3a1,1,0,0,1-1.007,1H4.007A1,1,0,0,1,3,21L3,7A1,1,0,0,1,4.01,6ZM9,6h8V16h2V4H9ZM7,11v2h6V11Zm0,4v2h6V15Z"/>
      <path id="Trazado_282" data-name="Trazado 282" d="M0,0H24V24H0Z" fill="rgba(0,0,0,0)" opacity="0"/>
    </g>
  </g>
</svg>
