<svg xmlns="http://www.w3.org/2000/svg" xmlns:xlink="http://www.w3.org/1999/xlink" width="24" height="24" viewBox="0 0 24 24">
  <defs>
    <clipPath id="clip-dns-icon">
      <rect width="24" height="24"/>
    </clipPath>
  </defs>
  <g id="dns-icon" clip-path="url(#clip-dns-icon)">
    <g id="dns-black-24dp" transform="translate(0)">
      <path id="Trazado_126" data-name="Trazado 126" d="M20,13H4a1,1,0,0,0-1,1v6a1,1,0,0,0,1,1H20a1,1,0,0,0,1-1V14A1,1,0,0,0,20,13ZM7,19a2,2,0,1,1,2-2A2.006,2.006,0,0,1,7,19ZM20,3H4A1,1,0,0,0,3,4v6a1,1,0,0,0,1,1H20a1,1,0,0,0,1-1V4A1,1,0,0,0,20,3ZM7,9A2,2,0,1,1,9,7,2.006,2.006,0,0,1,7,9Z" transform="translate(0 0)" fill="#1e1f21"/>
      <path id="Trazado_125" data-name="Trazado 125" d="M0,0H24V24H0Z" fill="rgba(0,0,0,0)" opacity="0"/>
    </g>
  </g>
</svg>
