<svg xmlns="http://www.w3.org/2000/svg" xmlns:xlink="http://www.w3.org/1999/xlink" width="24" height="24" viewBox="0 0 24 24">
  <defs>
    <clipPath id="clip-dollar-sign-icon">
      <rect width="24" height="24"/>
    </clipPath>
  </defs>
  <g id="dollar-sign-icon" clip-path="url(#clip-dollar-sign-icon)">
    <g id="Grupo_3991" data-name="Grupo 3991">
      <g id="dollar-symbol" transform="translate(-115.741 2)">
        <path id="Trazado_277" data-name="Trazado 277" d="M132.906,12.209a4.045,4.045,0,0,0-.352-.856,2.9,2.9,0,0,0-.593-.711,7.079,7.079,0,0,0-.694-.559,6.764,6.764,0,0,0-.845-.476q-.537-.263-.85-.392t-.907-.352q-.526-.2-.783-.308t-.677-.3a3.946,3.946,0,0,1-.627-.347,4.925,4.925,0,0,1-.442-.369,1.26,1.26,0,0,1-.33-.464,1.5,1.5,0,0,1,.576-1.779,2.91,2.91,0,0,1,1.735-.481,3.73,3.73,0,0,1,.957.129,5.005,5.005,0,0,1,.834.291,5.791,5.791,0,0,1,.655.358q.308.2.437.3c.086.067.14.112.162.134a.357.357,0,0,0,.3.078.305.305,0,0,0,.258-.179l.907-1.634a.324.324,0,0,0-.056-.425c-.045-.045-.1-.1-.168-.157s-.212-.168-.437-.325a5.4,5.4,0,0,0-.71-.42,7.187,7.187,0,0,0-.974-.375,6.208,6.208,0,0,0-1.237-.257V.358A.344.344,0,0,0,128.687,0h-1.511a.344.344,0,0,0-.252.106.344.344,0,0,0-.106.252V2.373a5.12,5.12,0,0,0-2.854,1.5,3.827,3.827,0,0,0-1.1,2.708,3.886,3.886,0,0,0,.1.873,4.467,4.467,0,0,0,.235.744,2.739,2.739,0,0,0,.4.649,6.952,6.952,0,0,0,.487.548,3.952,3.952,0,0,0,.6.476q.369.246.632.4t.7.347q.436.2.688.3t.688.28q.6.235.9.364t.739.358a3.067,3.067,0,0,1,.655.42,2.1,2.1,0,0,1,.375.47,1.134,1.134,0,0,1,.168.593,1.567,1.567,0,0,1-.688,1.365,2.713,2.713,0,0,1-1.595.481,3.91,3.91,0,0,1-.828-.089,5.847,5.847,0,0,1-2.719-1.4l-.022-.022a.278.278,0,0,0-.269-.1.348.348,0,0,0-.257.134l-1.153,1.511a.34.34,0,0,0,.022.459q.056.067.2.2a6.475,6.475,0,0,0,.52.42,6.868,6.868,0,0,0,1.964,1.035,7.065,7.065,0,0,0,1.427.347V19.7a.363.363,0,0,0,.358.358h1.511a.344.344,0,0,0,.358-.358V17.738a4.805,4.805,0,0,0,2.893-1.528,4.258,4.258,0,0,0,1.114-2.949A3.678,3.678,0,0,0,132.906,12.209Z" transform="translate(0 0)"/>
      </g>
      <path id="Trazado_136" data-name="Trazado 136" d="M0,0H24V24H0Z" fill="rgba(0,0,0,0)" opacity="0"/>
    </g>
  </g>
</svg>
