<svg xmlns="http://www.w3.org/2000/svg" xmlns:xlink="http://www.w3.org/1999/xlink" width="24" height="24" viewBox="0 0 24 24">
  <defs>
    <clipPath id="clip-error-warning-alt">
      <rect width="24" height="24"/>
    </clipPath>
  </defs>
  <g id="error-warning-alt" clip-path="url(#clip-error-warning-alt)">
    <g id="Grupo_4787" data-name="Grupo 4787">
      <path id="Trazado_728" data-name="Trazado 728" d="M12,22A10,10,0,1,1,22,12,10,10,0,0,1,12,22Zm0-2a8,8,0,1,0-8-8A8,8,0,0,0,12,20Zm0-9.414,2.828-2.829,1.415,1.415L13.414,12l2.829,2.828-1.415,1.415L12,13.414,9.172,16.243,7.757,14.828,10.586,12,7.757,9.172,9.172,7.757Z"/>
      <path id="Trazado_727" data-name="Trazado 727" d="M0,0H24V24H0Z" opacity="0"/>
    </g>
  </g>
</svg>
