<svg xmlns="http://www.w3.org/2000/svg" xmlns:xlink="http://www.w3.org/1999/xlink" width="24" height="24" viewBox="0 0 24 24">
  <defs>
    <clipPath id="clip-file-edit-edit">
      <rect width="24" height="24"/>
    </clipPath>
  </defs>
  <g id="file-edit-edit" clip-path="url(#clip-file-edit-edit)">
    <g id="Grupo_3647" data-name="Grupo 3647">
      <path id="Trazado_415" data-name="Trazado 415" d="M20,2a1,1,0,0,1,1,1V6.757l-2,2V4H5V20H19V17.242l2-2V21a1,1,0,0,1-1,1H4a1,1,0,0,1-1-1V3A1,1,0,0,1,4,2Zm1.778,6.808,1.414,1.414L15.414,18,14,18l0-1.412,7.778-7.778ZM13,12v2H8V12Zm3-4v2H8V8Z"/>
      <path id="Trazado_414" data-name="Trazado 414" d="M0,0H24V24H0Z" fill="rgba(0,0,0,0)" opacity="0"/>
    </g>
  </g>
</svg>
