<svg xmlns="http://www.w3.org/2000/svg" xmlns:xlink="http://www.w3.org/1999/xlink" width="24" height="24" viewBox="0 0 24 24">
  <defs>
    <clipPath id="clip-heatmap-icon">
      <rect width="24" height="24"/>
    </clipPath>
  </defs>
  <g id="heatmap-icon" clip-path="url(#clip-heatmap-icon)">
    <g id="wifi_tethering-black-24dp">
      <path id="Trazado_138" data-name="Trazado 138" d="M12,11a2,2,0,1,0,2,2A2.006,2.006,0,0,0,12,11Zm6,2a6,6,0,1,0-9,5.19l1-1.74a4,4,0,1,1,4,0l1,1.74A6,6,0,0,0,18,13ZM12,3A10,10,0,0,0,6.99,21.65l1-1.73a8.005,8.005,0,1,1,8.01,0l1,1.73A9.994,9.994,0,0,0,12,3Z" transform="translate(0)" fill="#1e1f21"/>
      <path id="Trazado_137" data-name="Trazado 137" d="M0,0H24V24H0Z" fill="rgba(0,0,0,0)" opacity="0"/>
    </g>
  </g>
</svg>
