<svg xmlns="http://www.w3.org/2000/svg" xmlns:xlink="http://www.w3.org/1999/xlink" width="24" height="24" viewBox="0 0 24 24">
  <defs>
    <clipPath id="clip-hide-password-icon">
      <rect width="24" height="24"/>
    </clipPath>
  </defs>
  <g id="hide-password-icon" clip-path="url(#clip-hide-password-icon)">
    <g id="Grupo_992" data-name="Grupo 992">
      <path id="Trazado_156" data-name="Trazado 156" d="M4.52,5.934,1.393,2.808,2.808,1.393l19.8,19.8-1.415,1.414-3.31-3.31A11,11,0,0,1,1.181,12a10.982,10.982,0,0,1,3.34-6.066ZM14.757,16.172l-1.464-1.464a3,3,0,0,1-4-4L7.828,9.243a5,5,0,0,0,6.929,6.929ZM7.974,3.76A11.01,11.01,0,0,1,22.819,12a10.947,10.947,0,0,1-2.012,4.592l-3.86-3.86a5,5,0,0,0-5.68-5.68L7.974,3.761Z" fill="#1e1f21"/>
      <path id="Trazado_155" data-name="Trazado 155" d="M0,0H24V24H0Z" fill="rgba(0,0,0,0)" opacity="0"/>
    </g>
  </g>
</svg>
