<svg xmlns="http://www.w3.org/2000/svg" xmlns:xlink="http://www.w3.org/1999/xlink" width="24" height="24" viewBox="0 0 24 24">
  <defs>
    <clipPath id="clip-Info-tooltip-icon">
      <rect width="24" height="24"/>
    </clipPath>
  </defs>
  <g id="Info-tooltip-icon" clip-path="url(#clip-Info-tooltip-icon)">
    <g id="Grupo_2899" data-name="Grupo 2899">
      <path id="Trazado_281" data-name="Trazado 281" d="M12,22A10,10,0,1,1,22,12,10,10,0,0,1,12,22Zm0-2a8,8,0,1,0-8-8A8,8,0,0,0,12,20Zm-1-5h2v2H11Zm2-1.645V14H11V12.5a1,1,0,0,1,1-1,1.5,1.5,0,1,0-1.471-1.794L8.567,9.313A3.5,3.5,0,1,1,13,13.355Z"/>
      <path id="Trazado_280" data-name="Trazado 280" d="M0,0H24V24H0Z" fill="rgba(0,0,0,0)" opacity="0"/>
    </g>
  </g>
</svg>
