<svg xmlns="http://www.w3.org/2000/svg" xmlns:xlink="http://www.w3.org/1999/xlink" width="24" height="24" viewBox="0 0 24 24">
  <defs>
    <clipPath id="clip-link-icon">
      <rect width="24" height="24"/>
    </clipPath>
  </defs>
  <g id="link-icon" clip-path="url(#clip-link-icon)">
    <g id="Grupo_1538" data-name="Grupo 1538">
      <path id="Trazado_177" data-name="Trazado 177" d="M17.657,14.828l-1.414-1.414L17.657,12A4,4,0,0,0,12,6.343L10.586,7.757,9.172,6.343l1.414-1.414a6,6,0,1,1,8.485,8.485l-1.414,1.414Zm-2.829,2.829-1.414,1.414a6,6,0,1,1-8.485-8.485L6.343,9.172l1.414,1.414L6.343,12A4,4,0,0,0,12,17.657l1.414-1.414Zm0-9.9,1.415,1.415-7.071,7.07L7.757,14.828l7.071-7.07Z"/>
      <path id="Trazado_176" data-name="Trazado 176" d="M0,0H24V24H0Z" fill="rgba(0,0,0,0)" opacity="0"/>
    </g>
  </g>
</svg>
