<svg xmlns="http://www.w3.org/2000/svg" xmlns:xlink="http://www.w3.org/1999/xlink" width="24" height="24" viewBox="0 0 24 24">
  <defs>
    <clipPath id="clip-log-icon">
      <rect width="24" height="24"/>
    </clipPath>
  </defs>
  <g id="log-icon" clip-path="url(#clip-log-icon)">
    <g id="Grupo_621" data-name="Grupo 621">
      <path id="Trazado_128" data-name="Trazado 128" d="M3,3H21a1,1,0,0,1,1,1V20a1,1,0,0,1-1,1H3a1,1,0,0,1-1-1V4A1,1,0,0,1,3,3Zm9,12v2h6V15ZM8.414,12,5.586,14.828,7,16.243,11.243,12,7,7.757,5.586,9.172Z" transform="translate(0)" fill="#1e1f21"/>
      <path id="Trazado_127" data-name="Trazado 127" d="M0,0H24V24H0Z" fill="rgba(0,0,0,0)" opacity="0"/>
    </g>
  </g>
</svg>
