<svg xmlns="http://www.w3.org/2000/svg" xmlns:xlink="http://www.w3.org/1999/xlink" width="24" height="24" viewBox="0 0 24 24">
  <defs>
    <clipPath id="clip-multi-select-icon">
      <rect width="24" height="24"/>
    </clipPath>
  </defs>
  <g id="multi-select-icon" clip-path="url(#clip-multi-select-icon)">
    <g id="Grupo_4721" data-name="Grupo 4721">
      <path id="Trazado_714" data-name="Trazado 714" d="M7,7V3A1,1,0,0,1,8,2H21a1,1,0,0,1,1,1V16a1,1,0,0,1-1,1H17v3.993A1.006,1.006,0,0,1,15.993,22H3.007A1.006,1.006,0,0,1,2,20.993L2,8.007A1.006,1.006,0,0,1,3.01,7ZM9,7h6.993A1.006,1.006,0,0,1,17,8.007V15h3V4H9Zm6,2H4L4,20H15ZM8.5,18,4.967,14.464,6.381,13.05,8.5,15.172l4.242-4.243,1.414,1.414Z"/>
      <path id="Trazado_713" data-name="Trazado 713" d="M0,0H24V24H0Z" fill="rgba(0,0,0,0)" opacity="0"/>
    </g>
  </g>
</svg>
