<svg xmlns="http://www.w3.org/2000/svg" xmlns:xlink="http://www.w3.org/1999/xlink" width="24" height="24" viewBox="0 0 24 24">
  <defs>
    <clipPath id="clip-pdf-file-icon">
      <rect width="24" height="24"/>
    </clipPath>
  </defs>
  <g id="pdf-file-icon" clip-path="url(#clip-pdf-file-icon)">
    <g id="Grupo_3703" data-name="Grupo 3703">
      <path id="Trazado_425" data-name="Trazado 425" d="M15,4H5V20H19V8H15ZM3,2.992A1,1,0,0,1,4,2H16l5,5V20.993A1,1,0,0,1,20.007,22H3.993A1,1,0,0,1,3,21.008Z"/>
      <path id="Trazado_424" data-name="Trazado 424" d="M0,0H24V24H0Z" fill="rgba(0,0,0,0)" opacity="0"/>
      <path id="iconmonstr-file-34" d="M15.5,11.915H13.135v3.378h.816V13.944h1.341v-.671H13.951v-.64H15.5Zm-4.41,0H9.651v3.378H11.09a1.4,1.4,0,0,0,1.136-.49,2.077,2.077,0,0,0-.056-2.467,1.465,1.465,0,0,0-1.08-.421Zm-.623.718h.446a.735.735,0,0,1,.824.59,1.755,1.755,0,0,1-.019.869.667.667,0,0,1-.679.484h-.573V12.632ZM8,11.915H6.5v3.378h.816v-1.17H8a1.059,1.059,0,0,0,1.1-.7,1.315,1.315,0,0,0,0-.811A1.06,1.06,0,0,0,8,11.915Zm-.685.671h.491c.211,0,.42.026.518.209a.578.578,0,0,1,0,.448c-.1.182-.307.208-.518.208H7.316Z" transform="translate(1)"/>
    </g>
  </g>
</svg>
