<svg xmlns="http://www.w3.org/2000/svg" xmlns:xlink="http://www.w3.org/1999/xlink" width="24" height="24" viewBox="0 0 24 24">
  <defs>
    <clipPath id="clip-print-icon">
      <rect width="24" height="24"/>
    </clipPath>
  </defs>
  <g id="print-icon" clip-path="url(#clip-print-icon)">
    <g id="Grupo_4749" data-name="Grupo 4749">
      <path id="Trazado_720" data-name="Trazado 720" d="M7,17H17v5H7Zm12,3V15H5v5H3a1,1,0,0,1-1-1V9A1,1,0,0,1,3,8H21a1,1,0,0,1,1,1V19a1,1,0,0,1-1,1ZM5,10v2H8V10ZM7,2H17a1,1,0,0,1,1,1V6H6V3A1,1,0,0,1,7,2Z"/>
      <path id="Trazado_719" data-name="Trazado 719" d="M0,0H24V24H0Z" fill="rgba(0,0,0,0)" opacity="0"/>
    </g>
  </g>
</svg>
