<svg xmlns="http://www.w3.org/2000/svg" xmlns:xlink="http://www.w3.org/1999/xlink" width="24" height="24" viewBox="0 0 24 24">
  <defs>
    <clipPath id="clip-property-icon">
      <rect width="24" height="24"/>
    </clipPath>
  </defs>
  <g id="property-icon" clip-path="url(#clip-property-icon)">
    <g id="Grupo_4298" data-name="Grupo 4298">
      <path id="Trazado_543" data-name="Trazado 543" d="M22,21H2V19H3V4A1,1,0,0,1,4,3H18a1,1,0,0,1,1,1V9h2V19h1Zm-5-2h2V11H13v8h2V13h2ZM17,9V5H5V19h6V9ZM7,11H9v2H7Zm0,4H9v2H7ZM7,7H9V9H7Z"/>
      <path id="Trazado_542" data-name="Trazado 542" d="M0,0H24V24H0Z" fill="rgba(0,0,0,0)" opacity="0"/>
    </g>
  </g>
</svg>
