<svg xmlns="http://www.w3.org/2000/svg" xmlns:xlink="http://www.w3.org/1999/xlink" width="24" height="24" viewBox="0 0 24 24">
  <defs>
    <clipPath id="clip-reset-zoom-icon">
      <rect width="24" height="24"/>
    </clipPath>
  </defs>
  <g id="reset-zoom-icon" clip-path="url(#clip-reset-zoom-icon)">
    <g id="Grupo_3891" data-name="Grupo 3891">
      <path id="Trazado_411" data-name="Trazado 411" d="M4.116,16.815v4.233H8.349v2.116H2V16.815Zm19.048,0v6.349H16.815V21.048h4.233V16.815ZM8.349,2V4.116H4.116V8.349H2V2ZM23.164,2V8.349H21.048V4.116H16.815V2Z" transform="translate(-0.582 -0.582)"/>
      <path id="Sustracción_6" data-name="Sustracción 6" d="M15378.413-338.352h0l-3.376-3.516a5.2,5.2,0,0,1-3.375,1.123h-.022a5.639,5.639,0,0,1-5.639-5.628,5.639,5.639,0,0,1,5.639-5.628,5.64,5.64,0,0,1,5.64,5.628,4.747,4.747,0,0,1-1.02,3.281l3.382,3.516-1.227,1.223Zm-6.778-11.819a3.81,3.81,0,0,0-3.81,3.8,3.808,3.808,0,0,0,3.81,3.8,3.807,3.807,0,0,0,3.807-3.8A3.809,3.809,0,0,0,15371.635-350.171Z" transform="translate(-15360.813 357.061)"/>
      <path id="Trazado_410" data-name="Trazado 410" d="M0,0H24V24H0Z" fill="rgba(0,0,0,0)" opacity="0"/>
    </g>
  </g>
</svg>
