<svg xmlns="http://www.w3.org/2000/svg" xmlns:xlink="http://www.w3.org/1999/xlink" width="24" height="24" viewBox="0 0 24 24">
  <defs>
    <clipPath id="clip-system-icon">
      <rect width="24" height="24"/>
    </clipPath>
  </defs>
  <g id="system-icon" clip-path="url(#clip-system-icon)">
    <g id="settings-black-18dp">
      <path id="Trazado_76" data-name="Trazado 76" d="M19.066,12.78a7.675,7.675,0,0,0,.069-.962,7.675,7.675,0,0,0-.069-.962l2.065-1.62a.5.5,0,0,0,.117-.628l-1.958-3.4a.491.491,0,0,0-.6-.216l-2.437.982A7.146,7.146,0,0,0,14.6,5.014l-.372-2.6A.478.478,0,0,0,13.751,2H9.836a.478.478,0,0,0-.48.412l-.372,2.6a7.514,7.514,0,0,0-1.654.962L4.893,4.995a.477.477,0,0,0-.6.216l-1.958,3.4a.485.485,0,0,0,.117.628l2.065,1.62a7.81,7.81,0,0,0-.069.962,7.81,7.81,0,0,0,.069.962L2.456,14.4a.5.5,0,0,0-.117.628l1.958,3.4a.491.491,0,0,0,.6.216L7.33,17.66a7.145,7.145,0,0,0,1.654.962l.372,2.6a.478.478,0,0,0,.48.412h3.915a.478.478,0,0,0,.48-.412l.372-2.6a7.514,7.514,0,0,0,1.654-.962l2.437.982a.477.477,0,0,0,.6-.216l1.958-3.4a.5.5,0,0,0-.117-.628Zm-7.272,2.474a3.436,3.436,0,1,1,3.426-3.436A3.435,3.435,0,0,1,11.793,15.255Z" transform="translate(0.206 0.182)" fill="#1e1f21"/>
      <path id="Trazado_75" data-name="Trazado 75" d="M0,0H24V24H0Z" fill="rgba(0,0,0,0)" opacity="0"/>
    </g>
  </g>
</svg>
