<svg xmlns="http://www.w3.org/2000/svg" xmlns:xlink="http://www.w3.org/1999/xlink" width="24" height="24" viewBox="0 0 24 24">
  <defs>
    <clipPath id="clip-target-icon">
      <rect width="24" height="24"/>
    </clipPath>
  </defs>
  <g id="target-icon" clip-path="url(#clip-target-icon)">
    <g id="Grupo_3467" data-name="Grupo 3467">
      <path id="Trazado_347" data-name="Trazado 347" d="M11.6,19.28A7.68,7.68,0,1,0,3.92,11.6,7.68,7.68,0,0,0,11.6,19.28Zm0,1.92a9.6,9.6,0,1,1,9.6-9.6A9.6,9.6,0,0,1,11.6,21.2Zm0-5.76A3.84,3.84,0,1,0,7.76,11.6,3.84,3.84,0,0,0,11.6,15.44Zm0,1.92a5.76,5.76,0,1,1,5.76-5.76A5.76,5.76,0,0,1,11.6,17.36Zm0-3.84a1.92,1.92,0,1,1,1.92-1.92A1.92,1.92,0,0,1,11.6,13.52Z" transform="translate(0.4 0.4)" fill="#1e1f21"/>
      <path id="Trazado_346" data-name="Trazado 346" d="M0,0H24V24H0Z" fill="rgba(0,0,0,0)" opacity="0"/>
    </g>
  </g>
</svg>
