<svg xmlns="http://www.w3.org/2000/svg" xmlns:xlink="http://www.w3.org/1999/xlink" width="24" height="24" viewBox="0 0 24 24">
  <defs>
    <clipPath id="clip-translate-icon">
      <rect width="24" height="24"/>
    </clipPath>
  </defs>
  <g id="translate-icon" clip-path="url(#clip-translate-icon)">
    <g id="Grupo_2128" data-name="Grupo 2128">
      <path id="Trazado_202" data-name="Trazado 202" d="M18.5,10l4.4,11H20.745l-1.2-3h-4.09l-1.2,3H12.1l4.4-11ZM10,2V4h6V6H14.032a18.222,18.222,0,0,1-3.62,6.3,14.864,14.864,0,0,0,2.336,1.707L12,15.886a17.015,17.015,0,0,1-3-2.161,16.676,16.676,0,0,1-6.2,3.548l-.536-1.929A14.7,14.7,0,0,0,7.59,12.3,18.078,18.078,0,0,1,4.767,8h2.24A16.032,16.032,0,0,0,9,10.877,16.165,16.165,0,0,0,11.91,6H2V4H8V2Zm7.5,10.885L16.253,16h2.492Z"/>
      <path id="Trazado_201" data-name="Trazado 201" d="M0,0H24V24H0Z" fill="rgba(0,0,0,0)" opacity="0.003"/>
    </g>
  </g>
</svg>
