<svg xmlns="http://www.w3.org/2000/svg" xmlns:xlink="http://www.w3.org/1999/xlink" width="24" height="24" viewBox="0 0 24 24">
  <defs>
    <clipPath id="clip-upstream-icon">
      <rect width="24" height="24"/>
    </clipPath>
  </defs>
  <g id="upstream-icon" clip-path="url(#clip-upstream-icon)">
    <g id="Grupo_3977" data-name="Grupo 3977" transform="translate(0 0.973)">
      <path id="Trazado_485" data-name="Trazado 485" d="M12,12.586l4.243,4.242-1.415,1.415L13,16.415V22H11V16.413l-1.828,1.83L7.757,16.828ZM12,2a7,7,0,0,1,6.954,6.194A5.5,5.5,0,0,1,18,18.978V16.964a3.5,3.5,0,1,0-1.112-6.911,5,5,0,1,0-9.777,0,3.5,3.5,0,0,0-1.292,6.88l.18.03v2.014A5.5,5.5,0,0,1,5.046,8.194,7,7,0,0,1,12,2Z"/>
      <path id="Trazado_484" data-name="Trazado 484" d="M0,0H24V24H0Z" fill="rgba(0,0,0,0)" opacity="0"/>
    </g>
  </g>
</svg>
