<svg xmlns="http://www.w3.org/2000/svg" xmlns:xlink="http://www.w3.org/1999/xlink" width="24" height="24" viewBox="0 0 24 24">
  <defs>
    <clipPath id="clip-user-delete-icon">
      <rect width="24" height="24"/>
    </clipPath>
  </defs>
  <g id="user-delete-icon" clip-path="url(#clip-user-delete-icon)">
    <g id="Grupo_5069" data-name="Grupo 5069">
      <path id="Trazado_756" data-name="Trazado 756" d="M0,0H24V24H0Z" fill="none"/>
      <path id="Trazado_757" data-name="Trazado 757" d="M14,14.252V22H4a8,8,0,0,1,10-7.748ZM12,13a6,6,0,1,1,6-6A6,6,0,0,1,12,13Zm7,3.586,2.121-2.122,1.415,1.415L20.414,18l2.122,2.121-1.415,1.415L19,19.414l-2.121,2.122-1.415-1.415L17.586,18l-2.122-2.121,1.415-1.415Z"/>
    </g>
  </g>
</svg>
