<svg xmlns="http://www.w3.org/2000/svg" xmlns:xlink="http://www.w3.org/1999/xlink" width="24" height="24" viewBox="0 0 24 24">
  <defs>
    <clipPath id="clip-user-config-icon">
      <rect width="24" height="24"/>
    </clipPath>
  </defs>
  <g id="user-config-icon" clip-path="url(#clip-user-config-icon)">
    <g id="Grupo_5154" data-name="Grupo 5154">
      <path id="Trazado_773" data-name="Trazado 773" d="M12,14v8H4a8,8,0,0,1,8-8Zm0-1a6,6,0,1,1,6-6A6,6,0,0,1,12,13Zm2.6,5.812a3.51,3.51,0,0,1,0-1.623l-.992-.573,1-1.732.992.573A3.5,3.5,0,0,1,17,14.645V13.5h2v1.145a3.492,3.492,0,0,1,1.405.812l.992-.573,1,1.732-.992.573a3.51,3.51,0,0,1,0,1.622l.992.573-1,1.732-.992-.573a3.5,3.5,0,0,1-1.4.812V22.5H17V21.355a3.5,3.5,0,0,1-1.4-.812l-.992.573-1-1.732.992-.572ZM18,17a1,1,0,1,0,1,1A1,1,0,0,0,18,17Z"/>
      <path id="Trazado_772" data-name="Trazado 772" d="M0,0H24V24H0Z" opacity="0"/>
    </g>
  </g>
</svg>
