<svg xmlns="http://www.w3.org/2000/svg" xmlns:xlink="http://www.w3.org/1999/xlink" width="24" height="24" viewBox="0 0 24 24">
  <defs>
    <clipPath id="clip-white-list-icon">
      <rect width="24" height="24"/>
    </clipPath>
  </defs>
  <g id="white-list-icon" clip-path="url(#clip-white-list-icon)">
    <g id="done-black-24dp" opacity="0.93">
      <path id="Sustracción_3" data-name="Sustracción 3" d="M14.5,20.1H1.454A2.069,2.069,0,0,1-.721,18.165V3.952A2.069,2.069,0,0,1,1.454,2.013H5.078a2.759,2.759,0,0,1,2.9-2.584,2.758,2.758,0,0,1,2.9,2.584H14.5a2.069,2.069,0,0,1,2.174,1.939V18.165A2.069,2.069,0,0,1,14.5,20.1ZM3.591,11.169l-1.4,1.269,3.966,3.6,7.931-7.2-1.4-1.278L6.16,13.492ZM7.977,1.045a1.034,1.034,0,0,0-1.087.968,1.035,1.035,0,0,0,1.087.969,1.035,1.035,0,0,0,1.087-.969A1.034,1.034,0,0,0,7.977,1.045Z" transform="translate(3.858 2.013)" fill="#1e1f21"/>
      <path id="Trazado_113" data-name="Trazado 113" d="M0,0H24V24H0Z" fill="rgba(0,0,0,0)" opacity="0"/>
    </g>
  </g>
</svg>
